HIERARCHY
ROOT Hips
{
  OFFSET -11.0901 94.7764 0.731153
  CHANNELS 6 Xposition Yposition Zposition Zrotation Xrotation Yrotation
  JOINT Spine
  {
    OFFSET 0 10.1816 0.1315
    CHANNELS 6 Xposition Yposition Zposition Zrotation Xrotation Yrotation
    JOINT Spine1
    {
      OFFSET 0 10.0835 -1.0008
      CHANNELS 6 Xposition Yposition Zposition Zrotation Xrotation Yrotation
      JOINT Spine2
      {
        OFFSET 0 9.1 -1.3734
        CHANNELS 6 Xposition Yposition Zposition Zrotation Xrotation Yrotation
        JOINT Neck
        {
          OFFSET 0 16.6717 -2.5162
          CHANNELS 6 Xposition Yposition Zposition Zrotation Xrotation Yrotation
          JOINT Head
          {
            OFFSET 0 9.6179 1.685
            CHANNELS 6 Xposition Yposition Zposition Zrotation Xrotation Yrotation
            JOINT HeadTop_End
            {
              OFFSET 0 17.8152 2.585
              CHANNELS 6 Xposition Yposition Zposition Zrotation Xrotation Yrotation
              End Site
              {
                OFFSET 0 0 0
              }
            }
            JOINT LeftEye
            {
              OFFSET 3.0676 6.4095 9.2836
              CHANNELS 6 Xposition Yposition Zposition Zrotation Xrotation Yrotation
              End Site
              {
                OFFSET 0 0 0
              }
            }
            JOINT RightEye
            {
              OFFSET -3.0676 6.4095 9.2835
              CHANNELS 6 Xposition Yposition Zposition Zrotation Xrotation Yrotation
              End Site
              {
                OFFSET 0 0 0
              }
            }
          }
        }
        JOINT LeftShoulder
        {
          OFFSET 4.5704 10.946 -2.628
          CHANNELS 6 Xposition Yposition Zposition Zrotation Xrotation Yrotation
          JOINT LeftArm
          {
            OFFSET 10.5924 -0.5246 -2.2321
            CHANNELS 6 Xposition Yposition Zposition Zrotation Xrotation Yrotation
            JOINT LeftForeArm
            {
              OFFSET 27.8415 -0.0001 0
              CHANNELS 6 Xposition Yposition Zposition Zrotation Xrotation Yrotation
              JOINT LeftHand
              {
                OFFSET 28.3288 0 0
                CHANNELS 6 Xposition Yposition Zposition Zrotation Xrotation Yrotation
                JOINT LeftHandThumb1
                {
                  OFFSET 2.4661 -1.575 2.6824
                  CHANNELS 6 Xposition Yposition Zposition Zrotation Xrotation Yrotation
                  JOINT LeftHandThumb2
                  {
                    OFFSET 3.2298 -1.8647 1.8647
                    CHANNELS 6 Xposition Yposition Zposition Zrotation Xrotation Yrotation
                    JOINT LeftHandThumb3
                    {
                      OFFSET 2.6526 -1.5315 1.5315
                      CHANNELS 6 Xposition Yposition Zposition Zrotation Xrotation Yrotation
                      End Site
                      {
                        OFFSET 1.9546 -1.1285 1.1285
                      }
                    }
                  }
                }
                JOINT LeftHandIndex1
                {
                  OFFSET 9.1093 -0.5171 2.2601
                  CHANNELS 6 Xposition Yposition Zposition Zrotation Xrotation Yrotation
                  JOINT LeftHandIndex2
                  {
                    OFFSET 3.6764 0 0
                    CHANNELS 6 Xposition Yposition Zposition Zrotation Xrotation Yrotation
                    JOINT LeftHandIndex3
                    {
                      OFFSET 2.8831 0 0
                      CHANNELS 6 Xposition Yposition Zposition Zrotation Xrotation Yrotation
                      End Site
                      {
                        OFFSET 2.3927 0 0
                      }
                    }
                  }
                }
                JOINT LeftHandMiddle1
                {
                  OFFSET 9.5334 0 0
                  CHANNELS 6 Xposition Yposition Zposition Zrotation Xrotation Yrotation
                  JOINT LeftHandMiddle2
                  {
                    OFFSET 3.6982 0 0
                    CHANNELS 6 Xposition Yposition Zposition Zrotation Xrotation Yrotation
                    JOINT LeftHandMiddle3
                    {
                      OFFSET 2.9509 0 0
                      CHANNELS 6 Xposition Yposition Zposition Zrotation Xrotation Yrotation
                      End Site
                      {
                        OFFSET 2.8339 0 0
                      }
                    }
                  }
                }
                JOINT LeftHandRing1
                {
                  OFFSET 9.1045 -0.0439 -1.8651
                  CHANNELS 6 Xposition Yposition Zposition Zrotation Xrotation Yrotation
                  JOINT LeftHandRing2
                  {
                    OFFSET 3.154 0 0
                    CHANNELS 6 Xposition Yposition Zposition Zrotation Xrotation Yrotation
                    JOINT LeftHandRing3
                    {
                      OFFSET 2.9377 0 0
                      CHANNELS 6 Xposition Yposition Zposition Zrotation Xrotation Yrotation
                      End Site
                      {
                        OFFSET 2.6475 0 0
                      }
                    }
                  }
                }
                JOINT LeftHandPinky1
                {
                  OFFSET 8.0778 -0.4887 -3.8061
                  CHANNELS 6 Xposition Yposition Zposition Zrotation Xrotation Yrotation
                  JOINT LeftHandPinky2
                  {
                    OFFSET 3.6 0 0
                    CHANNELS 6 Xposition Yposition Zposition Zrotation Xrotation Yrotation
                    JOINT LeftHandPinky3
                    {
                      OFFSET 2.1142 0 0
                      CHANNELS 6 Xposition Yposition Zposition Zrotation Xrotation Yrotation
                      End Site
                      {
                        OFFSET 1.9757 0 0
                      }
                    }
                  }
                }
              }
            }
          }
        }
        JOINT RightShoulder
        {
          OFFSET -4.57 10.9462 -2.628
          CHANNELS 6 Xposition Yposition Zposition Zrotation Xrotation Yrotation
          JOINT RightArm
          {
            OFFSET -10.5928 -0.5248 -2.2321
            CHANNELS 6 Xposition Yposition Zposition Zrotation Xrotation Yrotation
            JOINT RightForeArm
            {
              OFFSET -27.8415 0 0
              CHANNELS 6 Xposition Yposition Zposition Zrotation Xrotation Yrotation
              JOINT RightHand
              {
                OFFSET -28.3288 0 0.0001
                CHANNELS 6 Xposition Yposition Zposition Zrotation Xrotation Yrotation
                JOINT RightHandPinky1
                {
                  OFFSET -8.0767 -0.4885 -3.806
                  CHANNELS 6 Xposition Yposition Zposition Zrotation Xrotation Yrotation
                  JOINT RightHandPinky2
                  {
                    OFFSET -3.6 0 0.0001
                    CHANNELS 6 Xposition Yposition Zposition Zrotation Xrotation Yrotation
                    JOINT RightHandPinky3
                    {
                      OFFSET -2.1142 0 0
                      CHANNELS 6 Xposition Yposition Zposition Zrotation Xrotation Yrotation
                      End Site
                      {
                        OFFSET -1.9757 0 0
                      }
                    }
                  }
                }
                JOINT RightHandRing1
                {
                  OFFSET -9.1036 -0.0439 -1.8651
                  CHANNELS 6 Xposition Yposition Zposition Zrotation Xrotation Yrotation
                  JOINT RightHandRing2
                  {
                    OFFSET -3.154 0 0
                    CHANNELS 6 Xposition Yposition Zposition Zrotation Xrotation Yrotation
                    JOINT RightHandRing3
                    {
                      OFFSET -2.9377 0 0
                      CHANNELS 6 Xposition Yposition Zposition Zrotation Xrotation Yrotation
                      End Site
                      {
                        OFFSET -2.6475 0 0
                      }
                    }
                  }
                }
                JOINT RightHandMiddle1
                {
                  OFFSET -9.5325 0 0
                  CHANNELS 6 Xposition Yposition Zposition Zrotation Xrotation Yrotation
                  JOINT RightHandMiddle2
                  {
                    OFFSET -3.6982 0 0
                    CHANNELS 6 Xposition Yposition Zposition Zrotation Xrotation Yrotation
                    JOINT RightHandMiddle3
                    {
                      OFFSET -2.9509 0 0
                      CHANNELS 6 Xposition Yposition Zposition Zrotation Xrotation Yrotation
                      End Site
                      {
                        OFFSET -2.8339 0 0.0001
                      }
                    }
                  }
                }
                JOINT RightHandIndex1
                {
                  OFFSET -9.1083 -0.5168 2.2601
                  CHANNELS 6 Xposition Yposition Zposition Zrotation Xrotation Yrotation
                  JOINT RightHandIndex2
                  {
                    OFFSET -3.6764 0 0
                    CHANNELS 6 Xposition Yposition Zposition Zrotation Xrotation Yrotation
                    JOINT RightHandIndex3
                    {
                      OFFSET -2.8831 0 0
                      CHANNELS 6 Xposition Yposition Zposition Zrotation Xrotation Yrotation
                      End Site
                      {
                        OFFSET -2.3927 0 0
                      }
                    }
                  }
                }
                JOINT RightHandThumb1
                {
                  OFFSET -2.4648 -1.5727 2.6826
                  CHANNELS 6 Xposition Yposition Zposition Zrotation Xrotation Yrotation
                  JOINT RightHandThumb2
                  {
                    OFFSET -3.2298 -1.8647 1.8647
                    CHANNELS 6 Xposition Yposition Zposition Zrotation Xrotation Yrotation
                    JOINT RightHandThumb3
                    {
                      OFFSET -2.6526 -1.5314 1.5314
                      CHANNELS 6 Xposition Yposition Zposition Zrotation Xrotation Yrotation
                      End Site
                      {
                        OFFSET -1.9546 -1.1285 1.1285
                      }
                    }
                  }
                }
              }
            }
          }
        }
      }
    }
  }
  JOINT LeftUpLeg
  {
    OFFSET 8.2078 -6.7517 -1.5996
    CHANNELS 6 Xposition Yposition Zposition Zrotation Xrotation Yrotation
    JOINT LeftLeg
    {
      OFFSET 0 -44.3705 0.2846
      CHANNELS 6 Xposition Yposition Zposition Zrotation Xrotation Yrotation
      JOINT LeftFoot
      {
        OFFSET 0 -44.4279 -2.9822
        CHANNELS 6 Xposition Yposition Zposition Zrotation Xrotation Yrotation
        JOINT LeftToeBase
        {
          OFFSET 0 -8.7287 10.7106
          CHANNELS 6 Xposition Yposition Zposition Zrotation Xrotation Yrotation
          End Site
          {
            OFFSET 0 -0.0007 9.2781
          }
        }
      }
    }
  }
  JOINT RightUpLeg
  {
    OFFSET -8.2078 -6.7517 -1.5996
    CHANNELS 6 Xposition Yposition Zposition Zrotation Xrotation Yrotation
    JOINT RightLeg
    {
      OFFSET 0 -44.3705 0.2862
      CHANNELS 6 Xposition Yposition Zposition Zrotation Xrotation Yrotation
      JOINT RightFoot
      {
        OFFSET 0 -44.4277 -2.9838
        CHANNELS 6 Xposition Yposition Zposition Zrotation Xrotation Yrotation
        JOINT RightToeBase
        {
          OFFSET 0 -8.7287 10.7106
          CHANNELS 6 Xposition Yposition Zposition Zrotation Xrotation Yrotation
          End Site
          {
            OFFSET 0 -0.0007 9.2781
          }
        }
      }
    }
  }
}
MOTION
Frames:	4
Frame Time:	0.0333333
-0.710219 98.0221 1.23133 6.94912 -4.31992 -1.78216 1.77636e-015 10.1816 0.1315 5.77249 8.25042 -0.123177 -3.55271e-015 10.0835 -1.0008 1.9506 0.446676 -0.163379 7.10543e-015 9.1 -1.3734 1.96105 0.433592 -0.201679 0 16.6717 -2.5162 0.101195 6.64872 0.29764 7.10543e-015 9.6179 1.685 -11.1113 -5.322 6.57803 0 17.8152 2.585 -1.19271e-015 0 7.95139e-016 3.0676 6.4095 9.2836 -1.19271e-015 0 7.95139e-016 -3.0676 6.4095 9.2835 -1.19271e-015 0 7.95139e-016 4.5704 10.946 -2.628 -5.933 -1.49946 -2.45962 10.5924 -0.5246 -2.2321 -7.96037 -46.1881 0.35674 27.8415 -0.0001 0 -5.93893 7.11892 -107.82 28.3288 -1.42109e-014 0 23.9712 -7.56749 -0.21949 2.4661 -1.575 2.6824 -13.6702 37.5556 -13.0209 3.2298 -1.8647 1.8647 2.49307 10.1576 32.0575 2.6526 -1.5315 1.5315 8.36237 -12.8531 -14.3219 9.1093 -0.5171 2.2601 -9.15842 -0.387437 3.27229 3.6764 0 3.55271e-015 -25.5323 -0.571105 2.52028 2.8831 0 0 14.5608 -0.187784 -1.46972 9.5334 0 0 -9.18326 -0.388847 3.26419 3.6982 0 0 -25.4489 -0.567457 2.51259 2.9509 0 0 14.5614 -0.187795 -1.46979 9.1045 -0.0439 -1.8651 -9.20405 -0.390044 3.22288 3.154 -1.42109e-014 0 -25.4162 -0.566025 2.5096 2.9377 -2.84217e-014 0 14.5875 -0.188463 -1.47237 8.0778 -0.4887 -3.8061 -9.23428 -0.391776 3.28419 3.6 1.42109e-014 0 -25.3647 -0.563763 2.50482 2.1142 0 0 14.5592 -0.187742 -1.46958 -4.57 10.9462 -2.628 1.34587 5.75481 -0.269333 -10.5928 -0.5248 -2.2321 25.3955 -55.1557 29.4462 -27.8415 -1.42109e-014 0 4.72883e-005 -1.70827e-005 85.3751 -28.3288 -1.42109e-014 0.0001 -0.195154 8.04459 10.6562 -8.0767 -0.4885 -3.806 8.50832 -0.34648 -2.82003 -3.6 -1.42109e-014 0.0001 25.3919 -0.447748 -1.98891 -2.1142 -2.84217e-014 0 -14.595 -0.149767 1.16945 -9.1036 -0.0439 -1.8651 8.49465 -0.340772 -2.89118 -3.154 1.42109e-014 0 25.4487 -0.450405 -1.99448 -2.9377 0 -7.10543e-015 -14.594 -0.149747 1.16937 -9.5325 0 3.55271e-015 8.48075 -0.340059 -2.94295 -3.6982 0 0 25.4641 -0.450945 -1.99564 -2.9509 -2.84217e-014 0 -14.5861 -0.149586 1.16675 -9.1083 -0.5168 2.2601 8.4603 -0.338831 -2.95704 -3.6764 -1.42109e-014 3.55271e-015 25.5687 -0.4546 -2.00328 -2.8831 0 0 -14.5878 -0.149622 1.1689 -2.4648 -1.5727 2.6826 14.2253 36.8551 14.4136 -3.2298 -1.8647 1.8647 -2.91166 10.6365 -33.8531 -2.6526 -1.5314 1.5314 -10.8738 -10.01 8.58209 8.2078 -6.7517 -1.5996 -7.73568 -9.91926 30.5252 0 -44.3705 0.2846 11.7155 32.6319 -16.0676 0 -44.4279 -2.9822 3.64672 -21.4235 -9.75339 -4.44089e-016 -8.7287 10.7106 -1.01376 0.896035 0.026204 -8.2078 -6.7517 -1.5996 -25.5898 -9.56846 -27.3326 0 -44.3705 0.2862 -10.4098 31.0567 15.3745 0 -44.4277 -2.9838 16.1278 -14.4593 22.892 3.55271e-015 -8.7287 10.7106 -1.03094e-006 -3.71105 3.15124e-006 
-1.65009 97.9678 1.39259 5.13632 -4.29544 -0.961965 -8.88178e-016 10.1816 0.1315 5.91822 7.82537 -0.332922 3.55271e-015 10.0835 -1.0008 1.81448 0.462464 -0.170407 0 9.1 -1.3734 1.83497 0.447396 -0.201346 -3.55271e-015 16.6717 -2.5162 -0.0655887 6.61494 0.28063 0 9.6179 1.685 -10.4589 -4.62438 6.07768 -8.04912e-016 17.8152 2.585 1.68967e-015 7.95139e-016 1.59028e-015 3.0676 6.4095 9.2836 1.68967e-015 7.95139e-016 1.59028e-015 -3.0676 6.4095 9.2835 1.68967e-015 7.95139e-016 1.59028e-015 4.5704 10.946 -2.628 -5.76554 -1.06443 -2.57497 10.5924 -0.5246 -2.2321 -12.5143 -48.0518 -5.96726 27.8415 -0.0001 2.84217e-014 -2.60684 7.25992 -107.502 28.3288 0 0 20.5492 -7.48313 1.94476 2.4661 -1.575 2.6824 -13.4134 39.1416 -11.5219 3.2298 -1.8647 1.8647 2.58358 10.8345 33.5442 2.6526 -1.5315 1.5315 8.70601 -12.1514 -10.5066 9.1093 -0.5171 2.2601 -15.5168 -0.783884 3.85118 3.6764 1.42109e-014 0 -27.1034 -0.642251 2.66411 2.8831 -2.84217e-014 0 14.5491 -0.187476 -1.46857 9.5334 1.42109e-014 0 -16.2136 -0.83126 3.75016 3.6982 -2.84217e-014 -3.55271e-015 -26.2303 -0.602233 2.58442 2.9509 0 -7.10543e-015 14.5478 -0.187446 -1.46846 9.1045 -0.0439 -1.8651 -16.9717 -0.883326 3.31273 3.154 1.42109e-014 0 -25.7697 -0.581613 2.54215 2.9377 2.84217e-014 3.55271e-015 14.5495 -0.187489 -1.46862 8.0778 -0.4887 -3.8061 -17.8216 -0.944952 3.88231 3.6 -1.42109e-014 0 -25.8836 -0.586677 2.5526 2.1142 0 0 14.5472 -0.187422 -1.46836 -4.57 10.9462 -2.628 1.32252 5.46059 0.0380714 -10.5928 -0.5248 -2.2321 24.7399 -55.0712 25.703 -27.8415 0 -1.42109e-014 -8.04487e-006 1.39337e-005 88.5055 -28.3288 0 0.0001 1.03746 10.2413 9.87291 -8.0767 -0.4885 -3.806 14.2956 -0.662668 -1.56462 -3.6 0 0.0001 23.8135 -0.394538 -1.87258 -2.1142 0 0 -14.5735 -0.149326 1.16776 -9.1036 -0.0439 -1.8651 14.0854 -0.648111 -2.16905 -3.154 -1.42109e-014 3.55271e-015 24.3569 -0.413152 -1.91424 -2.9377 0 -7.10543e-015 -14.5779 -0.149412 1.1681 -9.5325 -1.42109e-014 7.10543e-015 13.8578 -0.635667 -3.20559 -3.6982 0 3.55271e-015 25.2692 -0.444182 -1.98135 -2.9509 2.84217e-014 -3.55271e-015 -14.5859 -0.14958 1.16671 -9.1083 -0.5168 2.2601 13.5239 -0.615962 -3.84812 -3.6764 1.42109e-014 -3.55271e-015 26.3337 -0.481728 -2.05904 -2.8831 0 0 -14.5785 -0.149432 1.16816 -2.4648 -1.5727 2.6826 14.7163 39.5832 12.6504 -3.2298 -1.8647 1.8647 -2.8473 10.8987 -34.5398 -2.6526 -1.5314 1.5314 -10.6538 -9.59334 6.91755 8.2078 -6.7517 -1.5996 -4.58312 -10.4891 30.224 8.88178e-016 -44.3705 0.2846 12.0864 34.4092 -15.5633 -8.88178e-016 -44.4279 -2.9822 2.36053 -22.0889 -11.6553 4.44089e-016 -8.7287 10.7106 -0.967369 0.755358 0.0221815 -8.2078 -6.7517 -1.5996 -23.0752 -9.16863 -26.7932 0 -44.3705 0.2862 -9.88077 31.6551 14.8034 3.55271e-015 -44.4277 -2.9838 15.1889 -15.2483 21.7511 0 -8.7287 10.7106 -5.27e-006 -3.8747 3.86789e-006 
-2.97538 97.7796 1.59555 2.67702 -4.47918 -0.354034 -6.66134e-016 10.1816 0.1315 5.78764 7.4621 -0.351936 3.55271e-015 10.0835 -1.0008 1.58699 0.48905 -0.109444 -3.55271e-015 9.1 -1.3734 1.62121 0.471859 -0.131616 0 16.6717 -2.5162 -0.241872 6.57456 0.263384 3.55271e-015 9.6179 1.685 -9.34251 -3.8565 5.42637 0 17.8152 2.585 -1.98785e-016 1.59028e-015 1.59028e-015 3.0676 6.4095 9.2836 -1.98785e-016 1.59028e-015 1.59028e-015 -3.0676 6.4095 9.2835 -1.98785e-016 1.59028e-015 1.59028e-015 4.5704 10.946 -2.628 -5.12968 -0.398846 -2.6755 10.5924 -0.5246 -2.2321 -17.8851 -50.3916 -14.0938 27.8415 -0.0001 0 1.90104 7.20933 -106.795 28.3288 -2.84217e-014 0 16.9763 -7.5346 4.29171 2.4661 -1.575 2.6824 -12.7953 41.5482 -9.35842 3.2298 -1.8647 1.8647 2.74163 11.8734 35.8443 2.6526 -1.5315 1.5315 9.05075 -10.5955 -4.78526 9.1093 -0.5171 2.2601 -25.4314 -1.52467 4.62209 3.6764 0 3.55271e-015 -29.5586 -0.761233 2.88481 2.8831 0 0 14.5524 -0.187562 -1.4689 9.5334 1.42109e-014 0 -27.1523 -1.66763 4.39191 3.6982 0 3.55271e-015 -27.5951 -0.665314 2.7087 2.9509 -2.84217e-014 0 14.5512 -0.18753 -1.46879 9.1045 -0.0439 -1.8651 -29.0602 -1.82802 3.20984 3.154 0 0 -26.294 -0.605105 2.59025 2.9377 2.84217e-014 -3.55271e-015 14.5444 -0.187359 -1.46813 8.0778 -0.4887 -3.8061 -31.1528 -2.01755 4.61215 3.6 2.84217e-014 7.10543e-015 -26.6798 -0.622676 2.6255 2.1142 -5.68434e-014 0 14.5515 -0.187539 -1.4688 -4.57 10.9462 -2.628 1.26053 5.00696 0.736719 -10.5928 -0.5248 -2.2321 23.4852 -54.5969 20.8466 -27.8415 0 0 7.62939e-005 -1.12544e-012 92.5994 -28.3288 -1.42109e-014 0.0001 0.800955 13.0436 9.0223 -8.0767 -0.4885 -3.806 23.9776 -1.27795 0.688077 -3.6 0 0.0001 21.6928 -0.328136 -1.71407 -2.1142 -2.84217e-014 7.10543e-015 -14.575 -0.149355 1.16787 -9.1036 -0.0439 -1.8651 23.3402 -1.23602 -1.02837 -3.154 0 0 22.9939 -0.368808 -1.81309 -2.9377 0 -7.10543e-015 -14.58 -0.149462 1.16829 -9.5325 0 -7.10543e-015 22.6628 -1.19487 -3.58602 -3.6982 2.84217e-014 0 25.1077 -0.438609 -1.96948 -2.9509 0 0 -14.5888 -0.149634 1.16694 -9.1083 -0.5168 2.2601 21.7831 -1.13391 -5.05316 -3.6764 0 0 27.7284 -0.533102 -2.15971 -2.8831 -2.84217e-014 -7.10543e-015 -14.5822 -0.1495 1.16844 -2.4648 -1.5727 2.6826 14.846 43.5193 10.325 -3.2298 -1.8647 1.8647 -2.78603 11.4084 -35.8173 -2.6526 -1.5314 1.5314 -10.394 -8.61685 4.00433 8.2078 -6.7517 -1.5996 -0.129939 -11.1928 30.3908 1.77636e-015 -44.3705 0.2846 12.5986 36.9594 -15.4061 4.44089e-016 -44.4279 -2.9822 0.892013 -22.966 -13.7824 4.44089e-016 -8.7287 10.7106 -1.0442 0.518462 0.0204341 -8.2078 -6.7517 -1.5996 -19.7429 -8.88164 -26.2234 0 -44.3705 0.2862 -9.33688 32.7641 14.3492 3.55271e-015 -44.4277 -2.9838 13.9166 -16.359 20.6083 3.55271e-015 -8.7287 10.7106 3.04861e-007 -4.01219 3.37443e-006 
-4.6047 97.5021 1.8256 -0.280942 -4.80012 0.0998017 0 10.1816 0.1315 5.45596 7.11831 -0.272548 0 10.0835 -1.0008 1.28667 0.523769 -0.00762398 0 9.1 -1.3734 1.3362 0.504892 -0.0201014 1.77636e-015 16.6717 -2.5162 -0.429364 6.52061 0.247063 3.55271e-015 9.6179 1.685 -7.87592 -3.04079 4.6309 0 17.8152 2.585 -9.93923e-017 7.95139e-016 -0 3.0676 6.4095 9.2836 -9.93923e-017 7.95139e-016 -0 -3.0676 6.4095 9.2835 -9.93923e-017 7.95139e-016 -0 4.5704 10.946 -2.628 -4.15033 0.496408 -2.80427 10.5924 -0.5246 -2.2321 -24.0446 -53.0847 -23.6583 27.8415 -0.0001 0 7.19399 7.01845 -105.793 28.3288 0 0 13.2199 -7.62852 6.51485 2.4661 -1.575 2.6824 -11.8132 44.8469 -6.51658 3.2298 -1.8647 1.8647 2.94544 13.3206 39.0616 2.6526 -1.5315 1.5315 9.19013 -8.05015 2.99865 9.1093 -0.5171 2.2601 -39.2081 -2.76458 5.41694 3.6764 -2.84217e-014 0 -32.9912 -0.943247 3.18451 2.8831 -2.84217e-014 0 14.5617 -0.187799 -1.46981 9.5334 0 7.10543e-015 -42.3244 -3.0733 5.00055 3.6982 0 0 -29.5832 -0.762473 2.887 2.9509 0 0 14.5615 -0.187797 -1.46978 9.1045 -0.0439 -1.8651 -45.8317 -3.42226 2.67971 3.154 0 0 -27.0529 -0.639897 2.65952 2.9377 0 -3.55271e-015 14.5575 -0.187693 -1.46942 8.0778 -0.4887 -3.8061 -49.6272 -3.83092 5.1671 3.6 2.84217e-014 3.55271e-015 -27.779 -0.674035 2.72534 2.1142 0 0 14.562 -0.187811 -1.46986 -4.57 10.9462 -2.628 1.25924 4.43122 1.70072 -10.5928 -0.5248 -2.2321 21.8964 -53.7394 15.3672 -27.8415 1.42109e-014 1.42109e-014 -6.246e-007 9.7425e-006 97.3365 -28.3288 0 0.0001 -0.45245 16.2259 8.23431 -8.0767 -0.4885 -3.806 38.5732 -2.35767 4.02558 -3.6 -2.84217e-014 0.0001 19.2782 -0.259732 -1.5308 -2.1142 -2.84217e-014 0 -14.5869 -0.149598 1.16881 -9.1036 -0.0439 -1.8651 37.171 -2.26976 0.572945 -3.154 2.84217e-014 -7.10543e-015 21.5677 -0.324989 -1.70615 -2.9377 2.84217e-014 7.10543e-015 -14.5906 -0.149673 1.1691 -9.5325 0 7.10543e-015 35.6733 -2.16626 -3.99653 -3.6982 0 0 25.0678 -0.437238 -1.96658 -2.9509 -2.84217e-014 0 -14.5915 -0.149691 1.16716 -9.1083 -0.5168 2.2601 33.9218 -2.02391 -6.40758 -3.6764 2.84217e-014 0 30.0008 -0.622003 -2.32098 -2.8831 0 0 -14.5908 -0.149677 1.16911 -2.4648 -1.5727 2.6826 14.6642 48.596 7.34565 -3.2298 -1.8647 1.8647 -2.74607 12.2692 -37.93 -2.6526 -1.5314 1.5314 -10.1178 -6.88887 -0.665666 8.2078 -6.7517 -1.5996 5.28527 -11.7924 31.013 -4.44089e-016 -44.3705 0.2846 13.0374 39.6872 -15.5018 0 -44.4279 -2.9822 -0.690718 -23.9831 -16.1233 0 -8.7287 10.7106 -1.08513 0.416386 0.0197473 -8.2078 -6.7517 -1.5996 -15.8379 -8.53436 -25.7021 3.55271e-015 -44.3705 0.2862 -8.4281 34.0267 13.9507 -7.10543e-015 -44.4277 -2.9838 12.1785 -17.7184 19.3998 3.55271e-015 -8.7287 10.7106 -6.14529e-007 -4.04359 -1.24836e-006 
